<svg xmlns="http://www.w3.org/2000/svg" width="14" height="14" viewBox="0 0 14 14" fill="none">
  <g transform="translate(0.868 0.868)"><path d="M7.609 11.375H1.085C0.966 11.375 0.868 11.277 0.868 11.158V2.1C0.868 1.981 0.966 1.883 1.085 1.883H2.226C2.31 2.38 2.737 2.758 3.255 2.758H6.79C7.308 2.758 7.735 2.38 7.819 1.883H8.96C9.079 1.883 9.177 1.981 9.177 2.1V5.628C9.177 5.726 9.254 5.803 9.352 5.803H9.884C9.982 5.803 10.059 5.726 10.059 5.628V2.1C10.059 1.498 9.562 1.008 8.967 1.008H7.84C7.819 0.448 7.357 0 6.797 0H3.262C2.695 0 2.24 0.448 2.219 1.008H1.092C0.49 1.008 0 1.498 0 2.1V11.158C0 11.76 0.49 12.25 1.092 12.25H7.623C7.721 12.25 7.798 12.173 7.798 12.075V11.543C7.798 11.445 7.721 11.368 7.623 11.368L7.609 11.375ZM3.08 1.05C3.08 1.05 3.094 1.022 3.094 1.008C3.115 0.938 3.171 0.875 3.248 0.875H6.783C6.86 0.875 6.916 0.931 6.937 1.008C6.937 1.022 6.951 1.036 6.951 1.05V1.708C6.951 1.806 6.874 1.883 6.776 1.883H3.241C3.143 1.883 3.066 1.806 3.066 1.708V1.05H3.08Z" fill="currentColor"/></g>
  <g transform="translate(0.868 0.868)"><path d="M11.76 8.953L10.003 8.302L9.352 6.545C9.303 6.405 9.17 6.314 9.016 6.314C8.862 6.314 8.729 6.405 8.68 6.545L8.029 8.302L6.272 8.953C6.132 9.002 6.041 9.135 6.041 9.289C6.041 9.443 6.132 9.569 6.272 9.625L8.029 10.276L8.68 12.033C8.729 12.173 8.862 12.264 9.016 12.264C9.17 12.264 9.303 12.173 9.352 12.033L10.003 10.276L11.76 9.625C11.9 9.576 11.991 9.443 11.991 9.289C11.991 9.135 11.9 9.002 11.76 8.953Z" fill="currentColor"/></g>
  <g transform="translate(0.868 0.868)"><path d="M12.201 6.3L11.683 6.111L11.494 5.593C11.48 5.551 11.438 5.523 11.396 5.523C11.354 5.523 11.312 5.551 11.298 5.593L11.109 6.111L10.591 6.3C10.549 6.314 10.521 6.356 10.521 6.398C10.521 6.44 10.549 6.482 10.591 6.496L11.109 6.685L11.298 7.203C11.312 7.245 11.354 7.273 11.396 7.273C11.438 7.273 11.48 7.245 11.494 7.203L11.683 6.685L12.201 6.496C12.243 6.482 12.271 6.44 12.271 6.398C12.271 6.356 12.243 6.314 12.201 6.3Z" fill="currentColor"/></g>
</svg>
