<svg preserveAspectRatio="none" overflow="visible" style="display: block;" width="14" height="13.9841" viewBox="0 0 14 13.9841" fill="none" xmlns="http://www.w3.org/2000/svg">
<g id="Vector">
<path d="M7.504 2.24006C7.504 2.15206 7.432 2.08006 7.344 2.08006H6.672C6.584 2.08006 6.512 2.15206 6.512 2.24006V6.76006L3.624 8.04006C3.552 8.07206 3.52 8.15206 3.552 8.22406L3.848 8.88006C3.88 8.95206 3.96 8.98406 4.032 8.95206L7.432 7.44006C7.432 7.44006 7.432 7.44006 7.432 7.43206C7.448 7.41606 7.464 7.40806 7.472 7.39206C7.488 7.37606 7.496 7.36006 7.496 7.33606C7.496 7.32806 7.504 7.32006 7.504 7.31206V2.24006Z" fill="#7B91B0" style="fill:#7B91B0;fill:color(display-p3 0.4824 0.5686 0.6902);fill-opacity:1;"/>
<path d="M13.608 4.68806L13.464 4.28806C13.424 4.18406 13.312 4.13606 13.208 4.17606L12.64 4.38406C12.536 4.42406 12.488 4.53606 12.528 4.64006L12.608 4.85606C12.864 5.53606 13 6.25606 13 6.99206C13 10.3041 10.312 12.9921 7 12.9921C3.688 12.9921 1 10.3041 1 6.99206C1 3.68006 3.688 0.992061 7 0.992061C8.6 0.992061 10.128 1.64806 11.24 2.76806H10.288C10.176 2.76806 10.088 2.85606 10.088 2.96806V3.57606C10.088 3.68806 10.176 3.77606 10.288 3.77606H12.664C12.776 3.77606 12.864 3.68806 12.864 3.57606V1.20006C12.864 1.08806 12.776 1.00006 12.664 1.00006H12.056C11.944 1.00006 11.856 1.08806 11.856 1.20006V1.99206C10.56 0.736061 8.816 6.09534e-05 6.984 6.09534e-05C3.136 -0.015939 0 3.12006 0 6.98406C0 10.8481 3.136 13.9841 7 13.9841C10.864 13.9841 14 10.8481 14 6.98406C14 6.19206 13.864 5.42406 13.608 4.68806Z" fill="#7B91B0" style="fill:#7B91B0;fill:color(display-p3 0.4824 0.5686 0.6902);fill-opacity:1;"/>
</g>
</svg>
